<svg xmlns="http://www.w3.org/2000/svg" width="51" height="50" viewBox="0 0 72 71" data-original-template-url="themes/jb-foundation/themes/jb-ph/templates/header/index.tpl.html">
    <g fill="none" fill-rule="evenodd" data-original-template-url="themes/jb-foundation/themes/jb-ph/templates/header/index.tpl.html">
        <g fill-rule="nonzero" data-original-template-url="themes/jb-foundation/themes/jb-ph/templates/header/index.tpl.html">
            <g fill="#231F20" data-original-template-url="themes/jb-foundation/themes/jb-ph/templates/header/index.tpl.html">
                <path d="M39.821 1.855c1.935-1.151 4.16-1.953 6.43-1.807 1.717.102 3.404.933 4.466 2.302 1.222 1.516 1.818 3.57 1.368 5.494-.51 2.434-2.4 4.299-4.467 5.538.32 1.15.64 2.317 1.004 3.453.48 0 .946.015 1.426.015-.044-2.142.684-4.343 2.167-5.916.422-.438.902-.817 1.47-1.035.596-.219 1.396 0 1.63.627.246.903-.263 1.763-.714 2.506-.844 1.282-2.11 2.404-2.27 4.022 3.841.48 7.58 2.186 10.271 4.998 2.808 2.813 4.554 6.689 4.641 10.682 1.44.072 2.88.757 3.637 2.01.975 1.618 1.207 3.585 1.004 5.436-.306 2.36-1.382 4.547-2.75 6.485-1.63 2.317-3.666 4.328-5.848 6.105-.393.336-.887.569-1.12 1.05-.67 1.18-1.644 2.2-2.837 2.856-2.022 1.107-4.422 1.5-6.677 1.064-.51-.073-1.004-.263-1.499-.35-3.578-.335-7.186-.612-10.736-1.239-2.604-.48-5.208-1.238-7.52-2.594-1.935-1.136-3.623-2.827-4.365-4.983-.494-1.458-.684-3.119-.174-4.59.407-1.18 1.265-2.128 2.24-2.871-.844-2.04-1.237-4.24-1.266-6.441a17.847 17.847 0 0 1 3.215-9.75 14.952 14.952 0 0 1-1.018-1.136c-1.47.802-3.23 1.079-4.873.729-1.775-.335-3.535-1.326-4.423-2.958-.873-1.618-.96-3.687-.13-5.348.727-1.487 2.05-2.58 3.447-3.396 2.284-1.34 4.873-2.054 7.477-2.52 1.12-3.556 3.666-6.544 6.794-8.438zm.247.816c-3.535 2.142-5.877 5.829-7.113 9.72-.131.35-.219.932-.713.918-.015-.758.305-1.457.48-2.171-2.328.495-4.67 1.15-6.75 2.346-1.266.728-2.444 1.72-3.099 3.045-.858 1.734-.596 3.993.698 5.45.873.991 2.139 1.56 3.434 1.793 1.309.204 2.75.16 3.913-.569-1.077-.947-2.139-1.909-3.288-2.783-.16-.102-.262-.233-.276-.423 2.196.685 3.899 2.347 5.47 3.95.102.072.262.35.392.174 1.76-2.185 4.103-3.832 6.634-5.027-.727-1.384-1.266-2.929-1.207-4.517.029-.991.145-2.04.654-2.9.379-.612 1.164-1.006 1.862-.729.422.16.67.612.786 1.035.495 2.01-.364 4.095.276 6.09 1.79-.553 3.608-1.063 5.5-1.121-.554-2.07-1.165-4.139-1.383-6.28-.043-.642-.072-1.312.058-1.939.059-.029.16-.073.219-.087.203 1.311.509 2.608.8 3.905 1.92-1.078 3.535-2.944 3.942-5.159.51-2.827-1.542-5.872-4.393-6.382-2.43-.423-4.844.437-6.896 1.661zm13.66 7.884c-.625.218-1.12.7-1.513 1.224-.756 1.093-1.382 2.302-1.57 3.628-.233 1.268-.103 2.565-.16 3.833-.524-.35-.32-1.137-.423-1.676-2.574-.117-5.135.379-7.579 1.195.175.7.771 1.238.858 1.967a1.097 1.097 0 0 1-.465-.35c-.771-.874-1.338-1.938-1.513-3.089-.204-1.107.058-2.23.044-3.337-.015-.743.072-1.574-.393-2.2-.378-.263-.931-.073-1.164.291-.45.685-.567 1.53-.567 2.332-.044 2.04.698 4.05 1.847 5.712.248.466.728.83.8 1.37-.8-.335-1.149-1.239-1.76-1.764a19.618 19.618 0 0 0-2.924 1.705c-3.084 2.143-5.397 5.378-6.444 8.991-1.062 3.367-.815 7.083.45 10.347 1.994-1.02 4.423-.977 6.445-.058.058.102.102.204.146.306-1.077-.16-2.153-.35-3.245-.336-1.469-.029-2.953.467-4.058 1.428-.888.773-1.499 1.866-1.63 3.046-.203 2.157.626 4.372 2.124 5.916 1.892 1.968 4.466 3.104 7.085 3.745 3.68.904 7.448 1.297 11.202 1.618-.364-.262-.742-.525-.99-.904l.058-.204c.713.16 1.353.554 2.052.787 2.27 1.006 4.931 1.297 7.273.394 2.066-.743 3.768-2.434 4.496-4.503.16-.277.145-.743.494-.845.015.335.015.685.015 1.02 1.978-1.53 3.797-3.279 5.31-5.29 1.352-1.807 2.473-3.847 2.909-6.091.35-1.69.218-3.483-.436-5.086-.408-.976-1.193-1.778-2.183-2.142-1.236-.48-2.647-.262-3.81.32v-.232c.566-.467 1.28-.715 1.992-.875-.087-4.605-2.444-9.093-6.168-11.803-2.4-1.734-5.223-2.93-8.176-3.192-.043.554-.043 1.122-.102 1.676-.276-.175-.32-.524-.334-.816-.044-.976-.015-1.996.393-2.9.596-1.399 1.702-2.477 2.4-3.818.175-.379.364-.86.073-1.238-.19-.234-.582-.16-.859-.102z"></path>
                <path d="M56.012 25.593c1.179-.364 2.459-.014 3.463.641 1.163.787 1.949 1.997 2.545 3.235.67 1.4 1.004 2.959 1.033 4.503.233 0 .553.03.393.365-1.76.99-3.637 1.763-5.412 2.725-.625.306-1.207.684-1.847.932-1.12-1.384-1.833-3.045-2.313-4.736-.422-1.574-.728-3.264-.335-4.881.277-1.254 1.193-2.42 2.473-2.784zm-1.614 2.186c-.597 1.384-.524 3.002-.146 4.43.146-.889.51-1.836 1.324-2.317 1.047-.685 2.517-.568 3.448.277-.306.772-.684 1.53-.99 2.317.655-.394 1.295-.83 1.92-1.268.684 1.093 1.092 2.375 1.092 3.672.48-.204.945-.408 1.41-.64-.101-2.405-.857-4.853-2.472-6.675-.786-.889-1.92-1.588-3.142-1.472-1.033.03-2.037.7-2.444 1.676zm-11.478.627c1.774-.088 3.375 1.034 4.422 2.39 1.368 1.763 1.804 4.036 1.964 6.222.058.99.044 1.996-.087 2.987-1.091 0-2.197 0-3.288.03-2.11.087-4.19.364-6.27.684-.044-.102-.145-.291-.19-.393.175-.088.35-.16.525-.248-.975-1.85-1.659-3.905-1.659-6.004 0-1.588.495-3.235 1.673-4.342.8-.743 1.804-1.34 2.91-1.326zm-.771.86c-1.135.305-2.008 1.223-2.532 2.244-.669 1.34-.785 2.943-.378 4.386.116-1.428 1.106-2.827 2.517-3.192 1.033-.291 2.138.117 2.968.744-.379.889-.8 1.763-1.092 2.696.728-.452 1.426-.948 2.168-1.341.8 1.399.902 3.06.67 4.62.712 0 1.44-.015 2.152-.03.117-1.982-.043-4.007-.654-5.916-.524-1.603-1.557-3.09-3.07-3.906a3.752 3.752 0 0 0-2.75-.306zm21.544 10.302c.393-.058.757-.35 1.179-.291-.524.699-1.499.83-1.979 1.573a25.08 25.08 0 0 0-3.346 5.931c-.567 1.312-1.338 2.682-2.662 3.352-1.353.597-2.967.51-4.291-.102-1.251-.554-2.342-1.399-3.594-1.967-1.6-.729-3.23-1.385-4.902-1.91-.378-.101-.786-.276-1.193-.13a4.962 4.962 0 0 1-2.357.145c.03-.043.088-.145.117-.19.96-.13 1.935-.466 2.59-1.209.217-.204.363-.568.712-.568.058.393-.116.758-.29 1.107 1.003.409 2.094.54 3.156.7 2.997.364 6.11.35 9.02-.568 2.225-.714 4.364-1.924 5.818-3.775.306-.408.626-.83.8-1.326-.421-.073-.945-.218-1.076-.7.785.03 1.556.147 2.298-.072zm-8.175 7.796c.189.292.407.568.567.86-1.498-1.05-3.593-.83-5.062.131 1.207.918 2.72 1.588 4.262 1.472 1.498-.131 2.779-1.282 3.317-2.652-.495-.204-1.019-.423-1.571-.38-.553.03-1.048.278-1.513.57z"></path>
                <path d="M55.78 40.21c.363.261.64.684.625 1.15.044.612-.407 1.137-.916 1.428-.771.38-1.702.394-2.532.175-.61-.204-1.353-.583-1.469-1.297.887.583 1.993.816 3.04.554.553-.131 1.106-.437 1.353-.976.16-.364.015-.714-.101-1.035z"></path>
            </g>
            <g fill="#FFF" data-original-template-url="themes/jb-foundation/themes/jb-ph/templates/header/index.tpl.html">
                <path d="M40.057 2.856c2.054-1.222 4.488-2.08 6.907-1.702 2.856.51 4.897 3.549 4.401 6.37-.408 2.211-2.025 4.073-3.95 5.149-.29-1.295-.597-2.589-.8-3.898a1.37 1.37 0 0 1-.22.087c-.13.64-.101 1.295-.057 1.935.218 2.138.83 4.203 1.384 6.268-1.88.073-3.716.582-5.509 1.12-.64-1.993.22-4.072-.276-6.08-.117-.421-.35-.857-.787-1.032-.7-.276-1.487.102-1.866.727-.51.873-.626 1.905-.655 2.894-.059 1.586.48 3.127 1.21 4.509-2.522 1.192-4.883 2.836-6.646 5.017-.131.175-.291-.102-.393-.174-1.574-1.6-3.28-3.258-5.48-3.942 0 .19.117.32.277.422 1.137.873 2.215 1.833 3.294 2.778-1.166.713-2.594.756-3.92.567-1.283-.233-2.55-.8-3.44-1.789-1.297-1.454-1.559-3.694-.7-5.439.657-1.323 1.837-2.312 3.105-3.04 2.084-1.192 4.415-1.846 6.762-2.34-.175.726-.496 1.424-.481 2.166.495.015.568-.567.714-.916 1.224-3.84 3.585-7.52 7.126-9.657zm13.858 20.652c1.239-.553 2.682-.728 3.993-.335 1.501.436 2.74 1.484 3.73 2.647 1.939 2.152 2.857 5.09 2.915 7.955v.233c1.166-.582 2.58-.8 3.818-.32.991.364 1.778 1.163 2.186 2.138.641 1.6.773 3.388.437 5.075-.437 2.226-1.559 4.276-2.914 6.08-1.516 2.007-3.337 3.752-5.32 5.279 0-.335 0-.684-.014-1.018-.35.102-.335.567-.495.843-.729 2.08-2.434 3.753-4.503 4.494-2.346.902-5.013.611-7.286-.392-.7-.233-1.341-.626-2.055-.786l-.058.204c.262.378.64.64.99.901-3.774-.32-7.548-.712-11.22-1.614-2.609-.64-5.203-1.774-7.097-3.737-1.501-1.542-2.332-3.753-2.128-5.905.131-1.164.743-2.269 1.632-3.04 1.108-.96 2.594-1.469 4.066-1.425 1.093-.014 2.171.19 3.25.335-.044-.102-.102-.204-.146-.306-1.516-2.88-2.317-6.297-1.53-9.511.452-1.92 1.647-3.694 3.38-4.683 1.779-1.033 4.023-1.294 5.946-.524 2.26.887 4.08 2.676 5.246 4.785.015-1.149-.087-2.312.234-3.432.437-1.6 1.399-3.185 2.943-3.941zm2.113 2.225c-1.282.363-2.2 1.527-2.492 2.792-.378 1.614-.072 3.301.336 4.872.48 1.687 1.195 3.345 2.317 4.727.655-.233 1.238-.626 1.85-.931 1.778-.96 3.658-1.73 5.421-2.72.16-.32-.16-.363-.393-.363-.044-1.542-.364-3.098-1.035-4.494-.583-1.25-1.384-2.458-2.55-3.229-.99-.669-2.288-1.018-3.454-.654zM42.913 28.54c-1.108-.015-2.113.581-2.915 1.309-1.165 1.105-1.675 2.763-1.675 4.333 0 2.095.67 4.145 1.66 5.992-.174.088-.349.16-.524.248.044.101.146.29.19.392 2.084-.334 4.182-.61 6.28-.683 1.093-.015 2.201-.03 3.294-.03.117-.988.146-1.992.087-2.98-.16-2.168-.597-4.451-1.967-6.21-1.035-1.339-2.652-2.459-4.43-2.371zm20.81 11.14c-.743.218-1.516.116-2.288.087.131.48.656.625 1.078.698-.175.495-.495.902-.801 1.324-1.472 1.847-3.614 3.054-5.83 3.766-2.914.917-6.032.931-9.034.568-1.079-.146-2.157-.291-3.163-.699.175-.334.35-.698.292-1.105-.35-.014-.481.364-.714.567-.656.742-1.632 1.077-2.594 1.207-.03.044-.088.146-.117.19a5 5 0 0 0 2.361-.146c.393-.16.801.03 1.195.131a39.401 39.401 0 0 1 4.91 1.905c1.254.567 2.347 1.41 3.6 1.964 1.341.61 2.944.712 4.3.101 1.325-.669 2.098-2.036 2.666-3.345.845-2.108 1.953-4.115 3.352-5.919.48-.742 1.457-.872 1.982-1.57-.438-.073-.787.203-1.195.276zm-7.928.64c.117.334.263.669.117 1.018-.248.538-.802.858-1.355.974-1.035.262-2.157.03-3.046-.552.116.712.845 1.09 1.472 1.294.816.218 1.748.203 2.535-.175.51-.29.962-.814.918-1.425 0-.465-.276-.872-.64-1.134zm.073 11.722c-1.443.32-2.885-.204-4.197-.757 1.02 1.31 2.886 1.687 4.46 1.353 1.384-.276 2.666-1.25 3.016-2.661-.86.988-1.953 1.847-3.279 2.065z"></path>
                <path d="M54.41 27.914c.409-.974 1.414-1.643 2.464-1.658 1.224-.116 2.36.597 3.147 1.47 1.618 1.817 2.376 4.26 2.478 6.66-.467.233-.933.436-1.414.64.015-1.294-.408-2.574-1.093-3.665-.627.436-1.268.858-1.923 1.265.306-.77.67-1.527.99-2.312-.932-.844-2.404-.96-3.453-.276-.816.48-1.195 1.41-1.326 2.312-.394-1.44-.467-3.054.13-4.436zm-12.27 1.484a3.75 3.75 0 0 1 2.77.32c1.515.8 2.55 2.297 3.074 3.897.612 1.89.773 3.912.656 5.905-.714.014-1.443.014-2.157.029.233-1.556.131-3.229-.67-4.61-.758.407-1.457.887-2.171 1.338.306-.917.714-1.79 1.093-2.69-.831-.64-1.924-1.033-2.973-.743-1.414.379-2.405 1.76-2.521 3.185a6.069 6.069 0 0 1 .379-4.377c.51-1.047 1.384-1.949 2.52-2.254z"></path>
            </g>
            <path fill="#E5173F" d="M53.758 10.69c.277-.058.67-.131.875.13.292.364.117.858-.073 1.236-.7 1.338-1.81 2.413-2.407 3.809-.394.901-.438 1.919-.394 2.893.014.29.043.64.335.814.059-.553.059-1.12.102-1.672 2.963.262 5.808 1.454 8.201 3.183 3.736 2.704 6.085 7.181 6.187 11.775-.715.16-1.43.393-1.999.872-.058-2.863-.978-5.8-2.918-7.951-1.007-1.163-2.233-2.21-3.736-2.646-1.313-.392-2.758-.218-3.998.334-1.547.742-2.51 2.326-2.948 3.94-.32 1.12-.233 2.282-.233 3.43-1.153-2.093-2.992-3.895-5.254-4.782-1.926-.77-4.173-.509-5.953.523-1.737.989-2.933 2.762-3.386 4.681-.788 3.213.015 6.629 1.533 9.507-2.029-.901-4.466-.96-6.465.058-1.27-3.27-1.517-6.963-.452-10.32a16.667 16.667 0 0 1 6.464-8.97c.92-.64 1.897-1.221 2.933-1.7.613.523.949 1.424 1.766 1.758-.073-.552-.555-.901-.803-1.366-1.167-1.657-1.897-3.649-1.853-5.699 0-.8.117-1.642.57-2.325.247-.364.787-.553 1.167-.291.467.625.38 1.454.394 2.195.014 1.12-.248 2.224-.044 3.329.175 1.148.744 2.21 1.517 3.082.117.16.292.261.467.348-.087-.726-.67-1.264-.86-1.962 2.451-.814 5.02-1.308 7.602-1.192.117.552-.102 1.323.423 1.672.059-1.28-.087-2.559.16-3.823.19-1.323.818-2.544 1.577-3.62.38-.552.875-1.032 1.503-1.25zm1.794 36.72c.453-.292.964-.539 1.518-.553.555-.044 1.08.174 1.576.378-.54 1.366-1.824 2.514-3.327 2.645-1.547.117-3.064-.552-4.275-1.468 1.488-.96 3.59-1.192 5.078-.13-.16-.32-.38-.597-.57-.873z"></path>
            <path fill="#221E1F" d="M55.719 52.111c1.32-.23 2.407-1.12 3.263-2.163-.348 1.473-1.625 2.516-3.002 2.808-1.566.337-3.408-.046-4.438-1.427 1.306.568 2.741 1.105 4.177.782z"></path>
        </g>
        <path fill="#FFF" d="M31.023 55.826c.73-.131 1.532.261 1.882.916.482.872.117 2.122-.831 2.514-1.051.524-2.466-.218-2.569-1.395-.16-.96.57-1.919 1.518-2.035zM6.406 57.25c.525-.552 1.46-.625 2.072-.189.438.291.671.843.657 1.367 0 2.18 0 4.36.014 6.541.059 1.192 0 2.471-.7 3.504-1.138 1.788-3.59 2.296-5.516 1.657C1.518 69.694.365 68.516 0 67.077v-.581c.131-.989 1.328-1.469 2.174-1.062.715.335.92 1.207 1.532 1.672.584.436 1.547.364 1.97-.262.292-.377.292-.857.292-1.308-.014-2.268 0-4.55-.014-6.832-.015-.509.073-1.076.452-1.454zM34.32 58.268c0-.989 1.095-1.715 2.03-1.425.714.16 1.21.873 1.21 1.585.015.974 0 1.962 0 2.936 1.926-.727 4.305.058 5.414 1.788 1.007 1.497.978 3.59-.03 5.088-.583.916-1.517 1.599-2.567 1.919-1.066.32-2.248.247-3.298-.117-1.124-.392-2.058-1.279-2.466-2.398-.263-.669-.336-1.396-.321-2.093.029-2.428.014-4.856.029-7.283zm4.451 5.684c-.846.116-1.532.9-1.488 1.744 0 .945.89 1.774 1.824 1.686.832-.014 1.547-.727 1.634-1.54.16-1.062-.904-2.08-1.97-1.89zM26.324 57.657c.526-.116 1.11 0 1.489.393.394.349.51.901.51 1.41-.014 3.009 0 6.018 0 9.027.03.785-.54 1.57-1.357 1.672-.919.174-1.838-.61-1.824-1.541v-9.434c0-.713.511-1.381 1.182-1.527zM21.363 57.817c.948-.581 2.335.117 2.364 1.236.015 3.183.015 6.367 0 9.565.015.828-.73 1.57-1.561 1.54-.847.059-1.62-.712-1.591-1.54 0-2.079-.058-4.172 0-6.25 0-1.12-.058-2.24.015-3.344.029-.524.364-.96.773-1.207zM14.388 60.914c2.378-.291 4.757 1.497 5.136 3.852.511 2.398-1.196 4.986-3.604 5.48-1.999.494-4.232-.48-5.224-2.282-.875-1.512-.802-3.504.175-4.943.774-1.192 2.101-1.977 3.517-2.107zm.204 3.023c-.773.116-1.459.814-1.444 1.628-.088.843.598 1.643 1.43 1.774.977.174 1.984-.64 1.984-1.643.088-1.047-.948-1.948-1.97-1.759zM45.542 62.382c1.314-1.541 3.721-1.92 5.487-.989 1.153.582 1.955 1.745 2.16 3.01.087.523.19 1.09-.044 1.57-.234.494-.847.653-1.343.668-1.444.029-2.904-.03-4.348.029.627 1.177 2.189 1.192 3.298.829.525-.175 1.196-.32 1.663.043.467.378.453 1.09.146 1.57-.38.567-1.036.843-1.663 1.047-1.708.465-3.692.189-5.02-1.047-1.853-1.686-1.985-4.855-.336-6.73zm1.868 2.238c1.036.015 2.072.015 3.108 0-.102-.508-.408-1.017-.92-1.192-.89-.407-2.115.16-2.188 1.192zM30.717 61c.948-.392 2.13.291 2.174 1.338.014 2.079 0 4.172 0 6.25.014.815-.7 1.556-1.518 1.556-.86.073-1.634-.683-1.634-1.54-.015-2.036 0-4.07 0-6.106-.03-.64.365-1.265.978-1.497zM56.384 61.393c1.43-.741 3.269-.668 4.626.233 1.328.857 2 2.53 1.824 4.07-.102.64-.817.945-1.4.945-1.46.029-2.905 0-4.364.014.219.553.773.873 1.343.989a4.36 4.36 0 0 0 2.16-.218c.51-.145 1.167-.218 1.546.218.423.465.292 1.206-.102 1.657-.438.48-1.08.727-1.693.901-1.605.378-3.458.117-4.728-.988-1.444-1.221-1.955-3.329-1.4-5.102a4.305 4.305 0 0 1 2.188-2.719zm.57 3.227h3.137c-.117-.741-.803-1.366-1.576-1.322-.76-.03-1.46.566-1.562 1.322zM64.001 60.58c.774-.117 1.445.77 1.095 1.482-.277.683-1.284.858-1.766.305-.584-.596-.175-1.744.671-1.788zm-.073.174c-.437.116-.788.552-.685 1.017.073.727 1.109 1.018 1.561.436.569-.581-.102-1.671-.876-1.453z"></path>
        <path fill="#FFF" fill-rule="nonzero" d="M63.695 61.103c.326.014.669-.03.96.072.069.364.035.756 0 1.12-.103-.175-.188-.364-.274-.553-.12 0-.343-.014-.463-.029 0 .116-.017.349-.017.45-.052 0-.155-.014-.206-.014v-1.046zm.257.203c-.206.233.292.378.463.204.206-.219-.291-.378-.463-.204z"></path>
    </g>
</svg>